<svg xmlns="http://www.w3.org/2000/svg" width="1200" height="630" viewBox="0 0 1200 630" role="img" aria-labelledby="t d"><title id="t">Sourcement repository thumbnail</title><desc id="d">A lightweight resource management dashboard concept with tariff cards and performance indicators.</desc><rect width="1200" height="630" fill="#eef2f7"/><g transform="translate(58 60)"><rect width="1084" height="510" rx="26" fill="#fff" stroke="#d6deea"/><rect width="240" height="510" rx="26" fill="#16213a"/><text x="30" y="52" fill="#8fb6ff" font-family="Arial" font-size="18" font-weight="900">SOURCEMENT</text><g font-family="Arial" font-size="15"><text x="30" y="116" fill="#fff" font-weight="800">Overview</text><text x="30" y="160" fill="#9eabc0">Resources</text><text x="30" y="204" fill="#9eabc0">Tariffs</text><text x="30" y="248" fill="#9eabc0">Reports</text><text x="30" y="292" fill="#9eabc0">Settings</text></g><g transform="translate(280 34)" font-family="Arial"><text fill="#172033" font-size="13" font-weight="900" letter-spacing="3">RESOURCE MANAGEMENT PLATFORM</text><text y="52" fill="#172033" font-size="36" font-weight="900">Operational overview</text><text y="84" fill="#657386" font-size="16">Lightweight static UI with modular SCSS and ES6.</text><g transform="translate(0 120)"><rect width="230" height="116" rx="18" fill="#e8f0ff"/><text x="20" y="34" fill="#51617a" font-size="13">Active resources</text><text x="20" y="80" fill="#172033" font-size="36" font-weight="900">248</text><rect x="250" width="230" height="116" rx="18" fill="#e8fbf3"/><text x="270" y="34" fill="#51617a" font-size="13">Tariff groups</text><text x="270" y="80" fill="#172033" font-size="36" font-weight="900">16</text><rect x="500" width="230" height="116" rx="18" fill="#fff4db"/><text x="520" y="34" fill="#51617a" font-size="13">Pending reviews</text><text x="520" y="80" fill="#172033" font-size="36" font-weight="900">08</text></g><rect y="266" width="730" height="170" rx="18" fill="#f7f9fc" stroke="#dde4ee"/><text x="22" y="300" fill="#172033" font-size="18" font-weight="900">Resource activity</text><path d="M24 394 C120 352 174 410 266 348 S430 322 512 366 S650 328 704 316" fill="none" stroke="#4f7cff" stroke-width="6"/><circle cx="704" cy="316" r="8" fill="#4f7cff"/></g></g><text x="1122" y="604" text-anchor="end" fill="#748096" font-family="Arial" font-size="12" font-weight="800" letter-spacing="3">NISCHHALSUBBA / SOURCEMENT</text></svg>